# xmcd
#
# Track frame offsets: 
#        183
#        9788
#        21448
#        38868
#        54538
#        67785
#        77580
#        96885
#        106348
#        120715
#
# Disc length: 1756 seconds
#
# Revision: 2
# Processed by: cddbd v1.5.2PL0 Copyright (c) Steve Scherf et al.
# Submitted via: ExactAudioCopy v0.95b4
#
DISCID=7106da0a
DTITLE=Sons of the San Joaquin - A Cowboy Has to Sing
DYEAR=1992
DGENRE=Cowboy
TTITLE0=Timber Trail
TTITLE1=The Boss Is Hangin' Out a Rainbow
TTITLE2=Blue Prairie
TTITLE3=Cool Water
TTITLE4=Way Out There
TTITLE5=A Cowboy Has to Sing
TTITLE6=Wind
TTITLE7=Song of the Rover
TTITLE8=Moonlight on the Trail
TTITLE9=So Long to the Red River Valley
EXTD=Jack Hannah, Joe Hannah, Lon Hannah: vocals\nJoey Miskulin: accor
EXTD=dion\nMark Casstevens: acoustic guitar, arch-top guitar\nPat Flyn
EXTD=n: acoustic guitar\nCraig Nelson: acoustic bass\nSonny Garrish: p
EXTD=edal steel guitar\nBob Hajacos: fiddle\nDennis Burnside: piano, s
EXTD=ynthesizer\nLonnie Wilson: drums, percussion\nProduced by Joey Mi
EXTD=skulin and Michael Martin Murphey.\nCD: Warner Western 9 26935-2 (1
EXTD=992-05-12), UPC 075992693523.
EXTT0=
EXTT1=
EXTT2=
EXTT3=
EXTT4=
EXTT5=
EXTT6=
EXTT7=
EXTT8=
EXTT9=
PLAYORDER=
